<?xml version="1.0" encoding="UTF-8"?><svg id="Layer_1" xmlns="http://www.w3.org/2000/svg" viewBox="0 0 329.8 114.7"><defs><style>.cls-1{fill:#003057;}.cls-2{fill:#fff;}</style></defs><polygon class="cls-2" points="329.8 114.7 329.8 0 186.4 0 236.8 114.7 329.8 114.7"/><path class="cls-2" d="m62,75.2c-6.7,6.4-13.2,10.6-23.7,10.6-16.1,0-28.2-13-28.2-30.2s12.1-30.1,28.2-30.1c8.7,0,15.6,3,23,10.1l.5.5,6.7-7.2-.5-.5c-6.6-6.2-14.8-12-29.6-12C16.5,16.4,0,33.3,0,55.8s16.4,39.2,38.1,39.2c15.2,0,23.8-6.7,30.3-13.3l.5-.5-6.5-6.4-.4.4h0Z"/><path class="cls-2" d="m96.5,36c-15.5,0-27.1,12.6-27.1,29.5s12.1,29.5,28.2,29.5c9.5,0,16.7-3.3,23.2-10.6l.4-.5-6.1-5.5-.4.5c-4.9,5.2-10.3,7.6-16.9,7.6-9.9,0-17.3-6.9-18.7-17.3h43.6l.1-.6c.1-.9.1-1.8.1-2.6,0-18-10.7-30-26.4-30m-17.4,25.7c1.3-10.3,8.3-17.5,17.2-17.5,11,0,15.9,8.9,16.9,17.5h-34.1Z"/><path class="cls-2" d="m159.1,46.4v-10.1h-.6c-9.1-.4-17.1,4.5-21.9,13.2v-12.3h-9.6v56.5h9.6v-22.7c0-15,8.3-24.6,21.2-24.6h1.3Z"/><polygon class="cls-1" points="268.2 17.7 242 80.9 215.9 17.7 205 17.7 237.7 94.2 246.1 94.2 278.8 17.7 268.2 17.7"/><path class="cls-2" d="m180.1,36.4h-17.2v8.6h16.7c9.9.1,15.4,5.2,15.4,14.4v1c-5.3-1.5-10.8-2.2-16.3-2.1-15.2,0-24.2,7-24.2,18.6,0,12.3,11,18,21.3,18,9.6,0,15.7-4.2,19.3-8.3v7.1h9.2v-34.4c-.1-14.7-8.6-22.9-24.2-22.9m-2.8,50.6c-6.4,0-13.2-3.3-13.2-10.4s5.8-10.8,15.4-10.8c5.3,0,10.5.7,15.6,2.2v4.8c0,8.1-7.6,14.2-17.8,14.2"/><path class="cls-1" d="m292,36c-15.5,0-27.1,12.7-27.1,29.5s12.1,29.5,28.2,29.5c9.5,0,16.7-3.3,23.2-10.6l.5-.5-6.1-5.5-.5.5c-4.9,5.2-10.3,7.6-16.9,7.6-9.9,0-17.4-6.9-18.7-17.3h43.6l.1-.6c.1-.9.1-1.8.1-2.6,0-18-10.6-30-26.4-30m16.7,25.8h-34c1.3-10.3,8.3-17.5,17.2-17.5,11,0,15.9,8.9,16.8,17.5"/><g><path class="cls-2" d="m13.08,109.04c-.54.54-1.32.8-2.21.8h-3v-8.54h3c.89,0,1.67.26,2.21.8.92.92.86,2.17.86,3.41s.06,2.6-.86,3.53Zm-.89-6c-.36-.4-.84-.58-1.45-.58h-1.57v6.21h1.57c.61,0,1.09-.18,1.45-.58.44-.49.46-1.42.46-2.59s-.01-1.98-.46-2.47Z"/><path class="cls-2" d="m15.86,109.84v-8.54h5.46v1.16h-4.16v2.5h3.55v1.15h-3.55v2.57h4.16v1.16h-5.46Z"/><path class="cls-2" d="m25.37,109.91c-1.28,0-2.21-.3-3.02-1.13l.86-.85c.62.62,1.31.82,2.18.82,1.12,0,1.76-.48,1.76-1.31,0-.37-.11-.68-.34-.89-.22-.2-.43-.29-.94-.36l-1.01-.14c-.7-.1-1.25-.34-1.62-.68-.42-.4-.62-.94-.62-1.63,0-1.49,1.08-2.51,2.85-2.51,1.13,0,1.92.29,2.65.97l-.83.82c-.53-.5-1.14-.66-1.86-.66-1.01,0-1.56.58-1.56,1.33,0,.31.1.59.32.79.22.19.56.34.96.4l.97.14c.79.12,1.24.31,1.6.64.47.41.7,1.02.7,1.75,0,1.57-1.28,2.51-3.07,2.51Z"/><path class="cls-2" d="m35.09,109.84l-.59-1.71h-3.37l-.59,1.71h-1.38l3.13-8.54h1.04l3.13,8.54h-1.38Zm-2.24-6.61l-1.33,3.79h2.63l-1.3-3.79Z"/><path class="cls-2" d="m42.39,109.84l-1.8-3.6h-1.62v3.6h-1.3v-8.54h3.31c1.62,0,2.65,1.04,2.65,2.49,0,1.22-.74,2-1.7,2.27l1.97,3.78h-1.51Zm-1.5-7.38h-1.92v2.67h1.92c.86,0,1.45-.49,1.45-1.33s-.59-1.34-1.45-1.34Z"/><path class="cls-2" d="m50.25,109.84l-1.8-3.6h-1.62v3.6h-1.3v-8.54h3.31c1.62,0,2.65,1.04,2.65,2.49,0,1.22-.74,2-1.7,2.27l1.97,3.78h-1.51Zm-1.5-7.38h-1.92v2.67h1.92c.86,0,1.45-.49,1.45-1.33s-.59-1.34-1.45-1.34Z"/><path class="cls-2" d="m58.41,109c-.59.59-1.34.91-2.25.91s-1.66-.32-2.24-.91c-.84-.84-.83-1.79-.83-3.43s-.01-2.59.83-3.43c.59-.59,1.33-.91,2.24-.91s1.67.32,2.25.91c.84.84.82,1.79.82,3.43s.02,2.59-.82,3.43Zm-.98-6.08c-.3-.32-.77-.53-1.27-.53s-.97.2-1.27.53c-.42.46-.5.94-.5,2.65s.08,2.19.5,2.65c.3.32.77.53,1.27.53s.97-.2,1.27-.53c.42-.46.5-.94.5-2.65s-.08-2.2-.5-2.65Z"/><path class="cls-2" d="m61.15,109.84v-8.54h1.3v7.38h4.11v1.16h-5.41Z"/><path class="cls-2" d="m68.04,109.84v-8.54h1.3v7.38h4.11v1.16h-5.41Z"/><path class="cls-2" d="m79.83,109.84l-.59-1.71h-3.37l-.59,1.71h-1.38l3.13-8.54h1.04l3.13,8.54h-1.38Zm-2.24-6.61l-1.33,3.79h2.63l-1.3-3.79Z"/><path class="cls-2" d="m87.63,109.04c-.54.54-1.32.8-2.21.8h-3v-8.54h3c.89,0,1.67.26,2.21.8.92.92.86,2.17.86,3.41s.06,2.6-.86,3.53Zm-.89-6c-.36-.4-.84-.58-1.45-.58h-1.57v6.21h1.57c.61,0,1.09-.18,1.45-.58.44-.49.46-1.42.46-2.59s-.01-1.98-.46-2.47Z"/><path class="cls-2" d="m95.43,109c-.59.59-1.34.91-2.25.91s-1.66-.32-2.24-.91c-.84-.84-.83-1.79-.83-3.43s-.01-2.59.83-3.43c.59-.59,1.33-.91,2.24-.91s1.67.32,2.25.91c.84.84.82,1.79.82,3.43s.02,2.59-.82,3.43Zm-.98-6.08c-.3-.32-.77-.53-1.27-.53s-.97.2-1.27.53c-.42.46-.5.94-.5,2.65s.08,2.19.5,2.65c.3.32.77.53,1.27.53s.97-.2,1.27-.53c.42-.46.5-.94.5-2.65s-.08-2.2-.5-2.65Z"/><path class="cls-2" d="m104.29,106.48h-1.94v3.36h-1.3v-8.54h3.24c1.67,0,2.73,1.1,2.73,2.59s-1.07,2.59-2.73,2.59Zm-.07-4.02h-1.87v2.84h1.87c.9,0,1.51-.52,1.51-1.42s-.61-1.43-1.51-1.43Z"/><path class="cls-2" d="m113.61,109c-.59.59-1.34.91-2.25.91s-1.66-.32-2.24-.91c-.84-.84-.83-1.79-.83-3.43s-.01-2.59.83-3.43c.59-.59,1.33-.91,2.24-.91s1.67.32,2.25.91c.84.84.82,1.79.82,3.43s.02,2.59-.82,3.43Zm-.98-6.08c-.3-.32-.77-.53-1.27-.53s-.97.2-1.27.53c-.42.46-.5.94-.5,2.65s.08,2.19.5,2.65c.3.32.77.53,1.27.53s.97-.2,1.27-.53c.42-.46.5-.94.5-2.65s-.08-2.2-.5-2.65Z"/><path class="cls-2" d="m121.07,109.84l-1.8-3.6h-1.62v3.6h-1.3v-8.54h3.31c1.62,0,2.65,1.04,2.65,2.49,0,1.22-.74,2-1.7,2.27l1.97,3.78h-1.51Zm-1.5-7.38h-1.92v2.67h1.92c.86,0,1.45-.49,1.45-1.33s-.59-1.34-1.45-1.34Z"/><path class="cls-2" d="m132.3,109.04c-.54.54-1.32.8-2.21.8h-3v-8.54h3c.89,0,1.67.26,2.21.8.92.92.86,2.17.86,3.41s.06,2.6-.86,3.53Zm-.89-6c-.36-.4-.84-.58-1.45-.58h-1.57v6.21h1.57c.61,0,1.09-.18,1.45-.58.44-.49.46-1.42.46-2.59s-.01-1.98-.46-2.47Z"/><path class="cls-2" d="m135.08,109.84v-8.54h5.46v1.16h-4.16v2.5h3.55v1.15h-3.55v2.57h4.16v1.16h-5.46Z"/><path class="cls-2" d="m147.03,109.84l-1.8-3.6h-1.62v3.6h-1.3v-8.54h3.31c1.62,0,2.65,1.04,2.65,2.49,0,1.22-.74,2-1.7,2.27l1.97,3.78h-1.51Zm-1.5-7.38h-1.92v2.67h1.92c.86,0,1.45-.49,1.45-1.33s-.59-1.34-1.45-1.34Z"/><path class="cls-2" d="m156.42,109.84v-5.71l-1.97,4.16h-.96l-2.01-4.16v5.71h-1.3v-8.54h1.3l2.49,5.31,2.45-5.31h1.3v8.54h-1.3Z"/><path class="cls-2" d="m164.84,109.84l-.59-1.71h-3.37l-.59,1.71h-1.38l3.13-8.54h1.04l3.13,8.54h-1.38Zm-2.24-6.61l-1.33,3.79h2.63l-1.29-3.79Z"/><path class="cls-2" d="m169.61,102.47v7.38h-1.29v-7.38h-2.35v-1.16h6v1.16h-2.35Z"/><path class="cls-2" d="m178.21,109c-.59.59-1.34.91-2.25.91s-1.66-.32-2.24-.91c-.84-.84-.83-1.79-.83-3.43s-.01-2.59.83-3.43c.59-.59,1.33-.91,2.24-.91s1.67.32,2.25.91c.84.84.82,1.79.82,3.43s.02,2.59-.82,3.43Zm-.98-6.08c-.3-.32-.77-.53-1.27-.53s-.97.2-1.27.53c-.42.46-.5.94-.5,2.65s.08,2.19.5,2.65c.3.32.77.53,1.27.53s.97-.2,1.27-.53c.42-.46.5-.94.5-2.65s-.08-2.2-.5-2.65Zm-.97-2.45h-.92l.9-1.94h1.36l-1.33,1.94Z"/><path class="cls-2" d="m180.95,109.84v-8.54h1.3v7.38h4.11v1.16h-5.41Z"/><path class="cls-2" d="m192.54,109c-.59.59-1.34.91-2.25.91s-1.66-.32-2.24-.91c-.84-.84-.83-1.79-.83-3.43s-.01-2.59.83-3.43c.59-.59,1.33-.91,2.24-.91s1.67.32,2.25.91c.84.84.82,1.79.82,3.43s.02,2.59-.82,3.43Zm-.98-6.08c-.3-.32-.77-.53-1.27-.53s-.97.2-1.27.53c-.42.46-.5.94-.5,2.65s.08,2.19.5,2.65c.3.32.77.53,1.27.53s.97-.2,1.27-.53c.42-.46.5-.94.5-2.65s-.08-2.2-.5-2.65Z"/><path class="cls-2" d="m200.39,108.94c-.65.68-1.45.97-2.35.97s-1.66-.32-2.24-.91c-.84-.84-.83-1.79-.83-3.43s-.01-2.59.83-3.43c.59-.59,1.33-.91,2.24-.91,1.81,0,2.87,1.19,3.11,2.65h-1.31c-.22-.94-.84-1.49-1.8-1.49-.5,0-.96.2-1.26.53-.42.46-.52.94-.52,2.65s.1,2.21.52,2.66c.3.32.76.52,1.26.52.56,0,1.06-.22,1.39-.6.31-.36.43-.79.43-1.34v-.48h-1.82v-1.1h3.12v1.31c0,1.1-.2,1.81-.77,2.41Z"/><path class="cls-2" d="m208.08,109c-.59.59-1.34.91-2.25.91s-1.66-.32-2.24-.91c-.84-.84-.83-1.79-.83-3.43s-.01-2.59.83-3.43c.59-.59,1.33-.91,2.24-.91s1.67.32,2.25.91c.84.84.82,1.79.82,3.43s.02,2.59-.82,3.43Zm-.98-6.08c-.3-.32-.77-.53-1.27-.53s-.97.2-1.27.53c-.42.46-.5.94-.5,2.65s.08,2.19.5,2.65c.3.32.77.53,1.27.53s.97-.2,1.27-.53c.42-.46.5-.94.5-2.65s-.08-2.2-.5-2.65Z"/><path class="cls-2" d="m213.08,109.91c-1.28,0-2.21-.3-3.02-1.13l.86-.85c.62.62,1.31.82,2.18.82,1.12,0,1.76-.48,1.76-1.31,0-.37-.11-.68-.34-.89-.22-.2-.43-.29-.94-.36l-1.01-.14c-.7-.1-1.25-.34-1.62-.68-.42-.4-.62-.94-.62-1.63,0-1.49,1.08-2.51,2.85-2.51,1.13,0,1.92.29,2.65.97l-.83.82c-.53-.5-1.14-.66-1.86-.66-1.01,0-1.56.58-1.56,1.33,0,.31.1.59.32.79.22.19.56.34.96.4l.97.14c.79.12,1.24.31,1.59.64.47.41.7,1.02.7,1.75,0,1.57-1.28,2.51-3.07,2.51Z"/></g></svg>